<?xml version="1.0" encoding="UTF-8"?>
<svg id="Layer_1" data-name="Layer 1" xmlns="http://www.w3.org/2000/svg" viewBox="0 0 2000 2000">
  <defs>
    <style>
      .cls-1 {
        fill: #fff;
      }

      .cls-2 {
        fill: #e14e1d;
      }

      .cls-3 {
        fill: #ebebeb;
      }
    </style>
  </defs>
  <rect class="cls-2" width="2000" height="2000" rx="468.75" ry="468.75"/>
  <path class="cls-1" d="m375,296.88l67.26,754.63h864.92l-29.02,323.67-278.48,75.3-277.96-75.19-18.58-207.83h-250.49l35.82,400.63,511.15,141.97,511.8-141.97,68.62-766.1h-909.53l-22.84-255.55h954.98l22.35-249.57H375Z"/>
  <path class="cls-3" d="m1000,296.88H375l67.26,754.63h557.74v-249.52h-329.5l-22.84-255.55h352.34v-249.57Z"/>
  <path class="cls-3" d="m1000,1450.37l-.32.11-277.96-75.19-18.58-207.83h-250.49l35.82,400.63,511.15,141.97.38-.11v-259.59Z"/>
</svg>