<?xml version="1.0" encoding="UTF-8"?>
<svg id="Layer_1" data-name="Layer 1" xmlns="http://www.w3.org/2000/svg" viewBox="0 0 1721.23 1559.31">
  <path d="m1477.77,1559.13h-21.79c-396.63,0-793.26,0-1189.9,0-5.16,0-10.33.31-15.48.12-17.09-.64-34.17-1.68-50.68-6.53-11.82-3.47-23.59-7.23-35.16-11.47-10.07-3.69-20.4-7.25-29.58-12.64-12.55-7.37-24.07-16.49-36.13-24.73-11.1-7.59-20.51-16.96-29.25-27.07-6.77-7.83-13.77-15.46-20.25-23.52-3.19-3.97-5.46-8.68-8.12-13.08-5.04-8.34-10.75-16.36-14.9-25.12-4.64-9.8-8.1-20.19-11.6-30.48-2.75-8.07-4.04-16.7-7.35-24.51-2.91-6.88-2.71-14.11-4.59-21.04-1.31-4.82-2.41-9.77-2.9-14.73-.34-3.5.73-7.11.75-10.68.02-2.89-.85-5.78-.85-8.68,0-2.83.79-5.64.93-8.48.41-8.4.13-16.88,1.13-25.2,1.2-9.97,3.32-19.84,5.3-29.7,1.3-6.46,2.76-12.91,4.69-19.2,1.34-4.38,3.78-8.41,5.4-12.72,1.72-4.6,2.89-9.41,4.64-14,.66-1.74,2.64-2.97,3.37-4.71,1.71-4.08,2.79-8.42,4.59-12.45.85-1.89,3.14-3.09,4.15-4.94,3.19-5.9,5.78-12.14,9.18-17.91,4.11-6.97,9.03-13.46,13.2-20.41,5.4-8.99,11.03-17.94,15.32-27.46,2.28-5.07,6.26-8.77,8.42-13.74,2.43-5.6,4.87-11.22,7.78-16.58,1.54-2.85,4.5-4.92,6.06-7.76,3.22-5.85,5.78-12.06,8.92-17.96,1.06-2,3.39-3.3,4.56-5.26,6.9-11.65,14.33-23.06,20.13-35.24,2.93-6.15,7.82-10.86,10.22-17.2,1.76-4.64,3.65-9.3,6.11-13.58,2.5-4.36,6.09-8.08,8.63-12.42,2.46-4.22,3.98-8.99,6.33-13.28,1.25-2.28,3.76-3.84,5.1-6.08,5.05-8.45,9.98-16.97,14.67-25.62,2.36-4.36,3.78-9.23,6.22-13.53,1.84-3.24,5.12-5.67,6.92-8.93,3.02-5.48,5.03-11.51,8.08-16.96,2.53-4.52,6.24-8.37,8.93-12.81,5.6-9.24,11.54-18.37,16.01-28.15,2.19-4.79,5.93-8.24,8.04-12.86,2.61-5.7,4.97-11.54,7.98-17.03,1.94-3.54,5.26-6.31,7.21-9.84,2.92-5.28,4.93-11.06,7.81-16.37,1.39-2.56,4.24-4.31,5.79-6.82,5.94-9.63,11.92-19.27,17.28-29.23,2.53-4.7,3.67-10.44,7.69-13.99,5.39-4.76,5.76-11.9,9.8-17.36,5.94-8.05,10.98-16.95,15.13-26.07,2.75-6.04,7.04-10.89,10.03-16.69,5.01-9.74,10.81-19.08,16.3-28.57,3.52-6.09,7.24-12.07,10.59-18.25,1.92-3.54,3-7.53,4.97-11.04,2.35-4.19,5.09-8.2,7.95-12.07,2.65-3.57,2.84-8.53,6.74-11.35,5.29-3.82,6.61-10.11,8.88-15.57,3.25-7.83,8.74-14.07,13.09-21.1-2.35-4.79,4.78-6.05,3.97-10.92-.34-2.06,3.88-4.62,5.43-7.3,2.03-3.52,3.25-7.51,5.22-11.07,1.75-3.16,3.98-6.06,6.1-9,3.64-5.03,7.24-9.95,8.98-16.16.87-3.1,3.64-5.65,5.51-8.47,3.9-5.9,7.87-11.56,9.67-18.79,1.01-4.07,5.47-7.19,7.93-11.03,1.37-2.15,1.79-4.9,2.73-7.35.24-.62.79-1.16,1.29-1.65.82-.8,2.25-1.38,2.5-2.3,1.81-6.69,7.65-11.05,9.99-17.3,3.64-9.7,11.73-16.85,15.13-26.48,2.67-7.54,8.98-12.69,11.65-20.08,1.34-3.72,2.69-7.49,4.57-10.95,1.39-2.57,3.97-4.48,5.42-7.02,2.09-3.67,3.42-7.77,5.48-11.47,1.76-3.15,4.05-6.02,6.17-8.96,3.62-5.03,7.25-9.93,8.92-16.18.78-2.95,3.45-5.39,5.25-8.07,4.03-6.01,8.56-11.64,9.85-19.23.44-2.56,3.59-4.59,5.31-7,2.56-3.58,5.55-6.71,5.73-11.83.09-2.67,3.38-5.13,4.93-7.86,3.36-5.89,6.39-11.97,9.82-17.82,1.91-3.26,4.57-6.07,6.47-9.34,3.01-5.19,5.53-10.67,8.5-15.89,1.67-2.94,3.98-5.52,5.71-8.43,3.55-5.99,8.03-11.34,9.56-18.6.73-3.45,4.79-6.09,6.83-9.41,3.28-5.34,5.76-11.1,8.22-16.9,2.04-4.81,7.08-8.34,9.15-13.15,4.22-9.79,11.87-17.51,15.69-27.37,3.11-8.03,8.99-14.28,13.01-21.73,4.13-7.66,9.45-14.7,14.54-21.8,4.76-6.65,9.71-13.19,14.97-19.45,2.38-2.83,5.95-4.61,8.55-7.3,5.1-5.27,9.59-11.16,14.91-16.18,3.56-3.35,8.17-5.56,12.22-8.42,14.07-9.92,29.45-17.64,44.16-26.47,4.79-2.87,10.03-3.67,14.85-5.94,4.82-2.28,9.4-5.65,14.47-6.69,17.23-3.53,34.56-6.69,51.98-9.1,11.04-1.53,22.33-2.3,33.46-1.95,12.86.41,25.67,2.42,38.5,3.77,6,.63,12.06,1.02,17.97,2.14,4.51.85,8.83,2.68,13.25,4.04,6.22,1.92,12.58,3.48,18.65,5.8,6.28,2.4,12.47,5.21,18.37,8.42,10.71,5.84,21.5,11.65,31.68,18.34,9.79,6.44,18.84,13.99,28.23,21.03,10.56,7.92,18.44,18.41,27.2,28.09,10.61,11.73,18.87,25.06,26.91,38.55,6.61,11.09,12.87,22.4,19.44,33.52,4.45,7.52,9.34,14.78,13.71,22.35,4.12,7.13,7.63,14.61,11.75,21.74,4.54,7.86,9.59,15.42,14.16,23.27,3.64,6.26,6.68,12.88,10.33,19.13,6.45,11.02,13.31,21.8,19.74,32.84,4.13,7.09,7.63,14.55,11.7,21.67,4.46,7.8,9.32,15.36,13.87,23.11,2.08,3.55,3.78,7.32,5.76,10.92,2.27,4.11,4.66,8.16,7.01,12.23,4.86,8.38,9.65,16.8,14.6,25.13,4.54,7.64,9.35,15.12,13.84,22.78,2.18,3.71,3.8,7.74,5.85,11.53,2.16,3.99,4.53,7.86,6.81,11.79,2.88,4.95,5.7,9.94,8.66,14.84,2.71,4.49,5.72,8.81,8.33,13.35,3.02,5.24,5.63,10.71,8.62,15.96,6.28,11.06,12.6,22.09,19.07,33.04,4.51,7.63,9.44,15.01,13.87,22.68,4.12,7.13,7.65,14.6,11.76,21.73,4.52,7.84,9.59,15.36,14.11,23.2,4.34,7.52,8.18,15.32,12.42,22.89,5.03,8.98,10.24,17.85,15.38,26.76,4.93,8.55,9.79,17.14,14.83,25.63,5.82,9.79,11.95,19.4,17.66,29.24,4.35,7.49,8.1,15.34,12.44,22.84,4.32,7.48,9.19,14.65,13.55,22.11,2.95,5.05,5.29,10.45,8.17,15.54,6.31,11.17,12.82,22.22,19.2,33.36,7.48,13.06,14.82,26.19,22.37,39.21,6.7,11.55,13.71,22.93,20.4,34.49,6.56,11.34,12.82,22.85,19.34,34.21,6.8,11.84,13.8,23.57,20.62,35.4,7.05,12.23,13.89,24.58,21.01,36.77,5.75,9.86,11.91,19.49,17.64,29.36,4,6.9,7.4,14.14,11.41,21.03,5.98,10.28,12.34,20.35,18.39,30.59,2.68,4.52,4.88,9.32,7.52,13.87,7.34,12.64,14.89,25.16,22.17,37.83,7.83,13.63,15.34,27.44,23.2,41.05,5.85,10.14,12.13,20.03,18.02,30.15,4.29,7.36,8.28,14.89,12.36,22.36,3.92,7.19,8.04,14.29,11.59,21.66,2.33,4.83,3.65,10.14,5.68,15.13,1.67,4.1,4.18,7.91,5.49,12.1,1.87,6,3.13,12.22,4.41,18.39,2.06,9.95,4.77,19.87,5.66,29.95,1.22,13.87,1.01,27.86,1.37,41.8.08,3,.26,6.02-.05,8.99-.85,8.13-1.69,16.27-3,24.33-1.38,8.43-2.76,16.93-5.09,25.13-11.02,38.8-29.66,73.59-56.57,103.68-15.11,16.9-31.94,31.98-51.19,44.21-16.78,10.66-34.21,20.22-53.08,26.36-15.18,4.94-30.92,8.24-46.54,11.67-8.62,1.89-17.52,2.53-27.82,3.95Zm-619.22-166.99c200.39,0,400.78.04,601.16-.13,9.73,0,19.79-.73,29.14-3.22,53.84-14.31,82.07-77.09,57.01-126.77-8.27-16.4-17.96-32.08-27.12-48.03-20.7-36.01-41.46-71.97-62.22-107.94-21.58-37.37-43.17-74.73-64.79-112.08-19.38-33.49-38.78-66.96-58.21-100.42-11.41-19.64-23.02-39.16-34.34-58.86-11.32-19.7-22.23-39.64-33.57-59.33-49.32-85.56-98.75-171.07-148.12-256.6-58.5-101.35-116.97-202.71-175.45-304.06-9.61-16.65-22.34-30.05-39.72-38.81-14.18-7.15-29.16-9.3-44.88-9-11.99.23-23.3,2.81-34.03,7.69-18.88,8.59-32.48,22.83-42.75,40.71-29.42,51.22-59.06,102.31-88.59,153.47-54.24,93.97-108.53,187.91-162.68,281.93-25.47,44.23-50.6,88.67-76.01,132.93-6.85,11.93-14.2,23.57-21.28,35.37-2.48,4.14-4.83,8.36-7.24,12.55-2.58,4.49-5.17,8.98-7.74,13.48-2.13,3.73-4.23,7.48-6.38,11.2-2.84,4.91-5.79,9.76-8.56,14.71-1.87,3.34-3.37,6.88-5.3,10.18-4.34,7.41-8.97,14.64-13.24,22.09-4.25,7.41-8.04,15.08-12.32,22.47-4.78,8.26-10.04,16.24-14.82,24.5-58.71,101.6-117.39,203.22-176.01,304.87-11.79,20.44-15.83,42.32-10.42,65.47,6.53,27.93,22.45,49.12,47.9,62.33,13.87,7.2,29.14,9.41,44.91,9.4,198.56-.14,397.11-.1,595.67-.1Z"/>
  <path d="m858.55,1392.14c-198.56,0-397.11-.05-595.67.1-15.77.01-31.04-2.2-44.91-9.4-25.45-13.21-41.37-34.4-47.9-62.33-5.41-23.15-1.37-45.03,10.42-65.47,58.62-101.65,117.3-203.27,176.01-304.87,4.77-8.26,10.04-16.24,14.82-24.5,4.28-7.39,8.07-15.06,12.32-22.47,4.27-7.45,8.9-14.68,13.24-22.09,1.93-3.3,3.43-6.85,5.3-10.18,2.77-4.95,5.72-9.8,8.56-14.71,2.15-3.72,4.25-7.47,6.38-11.2,2.57-4.5,5.16-8.99,7.74-13.48,2.41-4.19,4.76-8.41,7.24-12.55,7.08-11.8,14.43-23.44,21.28-35.37,25.41-44.27,50.54-88.7,76.01-132.93,54.15-94.02,108.44-187.96,162.68-281.93,29.53-51.16,59.17-102.25,88.59-153.47,10.27-17.87,23.87-32.12,42.75-40.71,10.73-4.88,22.04-7.47,34.03-7.69,15.72-.3,30.7,1.85,44.88,9,17.38,8.76,30.11,22.16,39.72,38.81,58.49,101.35,116.96,202.71,175.45,304.06,49.37,85.54,98.8,171.04,148.12,256.6,11.35,19.69,22.26,39.62,33.57,59.33,11.31,19.7,22.93,39.22,34.34,58.86,19.43,33.45,38.83,66.93,58.21,100.42,21.62,37.35,43.21,74.71,64.79,112.08,20.77,35.97,41.53,71.94,62.22,107.94,9.16,15.94,18.85,31.63,27.12,48.03,25.06,49.68-3.17,112.46-57.01,126.77-9.35,2.48-19.41,3.21-29.14,3.22-200.39.18-400.78.13-601.16.13Zm86.53-699.63c0-62.3.07-124.6-.03-186.9-.05-29.91-12.07-54.12-36.89-70.83-28.12-18.93-57.81-18.63-87.85-4.21-2.44,1.17-6.41,2.17-6.82,3.91-.73,3.16-2.99,3.75-4.8,5.27-3.06,2.57-5.74,6.01-9.26,7.48-2.35.98-3.27,1.92-3.95,4-.45,1.37-1.29,2.62-1.95,3.92-4.33,8.65-8.72,17.27-12.96,25.96-1.28,2.62-2.94,5.4-3.06,8.17-.29,6.57.41,13.17.41,19.76.03,125.43.02,250.86.04,376.29,0,6.18-.55,12.52.56,18.52,1.61,8.77,3.47,17.77,7.14,25.79,3.31,7.21,8.65,13.75,14.08,19.68,12.33,13.45,27.47,21.67,45.65,25.72,18.11,4.03,34.77.38,50.99-6.02,11.51-4.54,21.08-13.01,28.83-22.73,6.64-8.33,13.65-16.87,15.44-27.89,1.81-11.11,4.16-22.32,4.23-33.5.4-64.13.2-128.26.19-192.39Zm-82.87,374.63c-61.1-1.33-117.51,49.87-111.82,120.7,4.31,53.6,48.39,99.35,106.29,101.57,33.12,1.27,61.67-10.69,85.12-34.49,21.51-21.83,31.55-49.09,31.21-78.54-.34-29.31-11.4-55.96-33.05-77.3-21.66-21.35-47.73-31.31-77.74-31.95Z" style="fill: #ffd020;"/>
  <path d="m945.08,692.51c0,64.13.21,128.26-.2,192.39-.07,11.18-2.43,22.39-4.23,33.5-1.79,11.02-8.8,19.56-15.44,27.89-7.75,9.72-17.31,18.19-28.83,22.73-16.21,6.4-32.87,10.05-50.99,6.02-18.18-4.05-33.32-12.27-45.65-25.72-5.43-5.93-10.77-12.47-14.08-19.68-3.68-8.02-5.53-17.02-7.14-25.79-1.11-6.01-.56-12.34-.56-18.52-.02-125.43,0-250.86-.04-376.29,0-6.59-.7-13.19-.41-19.76.12-2.77,1.78-5.55,3.06-8.17,4.24-8.69,8.63-17.32,12.96-25.96.66-1.31,1.5-2.55,1.95-3.92.68-2.07,1.59-3.01,3.95-4,3.51-1.47,6.19-4.91,9.26-7.48,1.81-1.52,4.07-2.11,4.8-5.27.4-1.74,4.38-2.74,6.82-3.91,30.04-14.42,59.73-14.72,87.85,4.21,24.83,16.71,36.84,40.92,36.89,70.83.1,62.3.03,124.6.03,186.9Z"/>
  <path d="m862.21,1067.14c30.01.63,56.09,10.6,77.74,31.95,21.65,21.34,32.71,47.99,33.05,77.3.34,29.45-9.7,56.71-31.21,78.54-23.45,23.8-52,35.76-85.12,34.49-57.89-2.22-101.98-47.97-106.29-101.57-5.69-70.83,50.71-122.03,111.82-120.7Z"/>
</svg>