<?xml version="1.0" encoding="UTF-8"?>
<svg id="Layer_1" data-name="Layer 1" xmlns="http://www.w3.org/2000/svg" viewBox="0 0 600 600">
  <defs>
    <style>
      .cls-1 {
        fill: #e9686a;
      }

      .cls-2 {
        fill: #32b1cc;
      }

      .cls-3 {
        fill: #55b56a;
      }

      .cls-4 {
        fill: #f49e21;
      }
    </style>
  </defs>
  <path d="m150.04,0v69.92h69.73v79.7h-69.62v70.11h-79.76v-69.79H0v-79.66h70.33V0h79.71Zm49.72,130.05v-39.68h-69.91V20.27h-39.96v70.08H20.42v39.9h70.08v69.37h39.76v-69.57h69.5Z"/>
  <path d="m119.6,395.33c15.57-15.57,30.71-30.52,45.59-45.72,3.27-3.34,5.26-3.39,8.4.03,5.54,6.04,11.52,11.67,17.31,17.47,6.96,6.96,13.92,13.91,20.88,20.86,4.89,4.89,9.84,9.72,14.65,14.68,5.26,5.43,5.19,9.58-.03,14.78-14.2,14.17-28.4,28.35-41.94,41.86,16.09,17.21,31.88,34.08,48.02,51.33.18-.22-.57.85-1.48,1.76-19.18,19.21-38.45,38.32-57.49,57.66-3.33,3.39-5.22,3.12-8.4-.13-14.88-15.2-30-30.17-44.57-44.74-16.65,16.65-33.15,33.16-49.36,49.37-22.38-22.37-43.72-43.71-64.91-64.89,16.3-16.25,32.83-32.74,51.43-51.29-18.17-16.48-35.62-32.29-53.78-48.77,10.62-9.98,20.04-18.58,29.17-27.47,10.63-10.35,21.26-20.73,31.4-31.55,4.16-4.43,6.44-4.16,10.54.08,14.49,15,29.42,29.57,44.55,44.67Zm.67,28.73c-16.96-16.82-33.76-33.48-51.62-51.19-11.8,13.26-22.6,25.41-35.49,39.9,16.17,14.72,33.65,30.64,50.57,46.04-17.56,17.59-33.9,33.97-50.66,50.75,11.7,11.59,22.82,22.52,33.81,33.57,2.97,2.99,4.67,1.02,6.69-1.02,10.06-10.1,20.2-20.12,30.22-30.26,5.31-5.37,10.45-10.91,16.02-16.74,17.01,17.45,33.19,34.05,48.82,50.09,12.08-12.09,24.03-24.05,36.65-36.68-16.22-15.95-32.82-32.27-50.32-49.49,16.93-16.79,33.38-33.12,50.13-49.73-9.05-9.01-18.3-18.22-27.54-27.44-7.87-7.85-7.7-7.7-15.5.26-13.8,14.08-27.82,27.95-41.77,41.94Z"/>
  <path d="m309.76,489.47c-6.46.39-12.91.78-19.37,1.17-.02-57.87-.03-115.75-.09-173.63,0-2.07-.45-4.14-.69-6.21-.13-.18-.29-.33-.46-.46-2.07-.24-4.14-.69-6.21-.69-57.92-.06-115.83-.06-173.75-.08,0-6.45,0-12.91,0-19.35,57.91-.02,115.82-.03,173.74-.09,2.07,0,4.14-.45,6.21-.69.18-.13.33-.28.46-.46.24-2.06.69-4.13.69-6.2.06-57.49.06-114.98.08-172.47,6.46,0,12.91,0,19.37,0,0,59.83,0,119.67,0,179.78h178.9c.37,6.49.75,12.99,1.12,19.48-59.86,0-119.73,0-180.01,0v179.91Z"/>
  <path d="m600,70.3v79.23h-219.62v-79.23h219.62Zm-20.06,20.1h-179.57v39.27h179.57v-39.27Z"/>
  <path d="m599.92,430.35v79.14h-219.51v-79.14h219.51Zm-199.5,19.68v39.85h179.37v-39.85h-179.37Z"/>
  <path d="m479.88,339.16c6.61.91,13.97,1.5,21.15,2.98,13.67,2.83,24.72,15.92,27.85,29.47,2.77,12,.14,23.06-6.52,31.81-13.73,18.02-37.2,24.34-57.71,7.41-19.66-16.24-19.9-43.81-1.31-61.32,2.55-2.4,6.01-3.83,9.05-5.71,2.43-1.5,4.86-3.01,7.5-4.64Zm-9.78,40.42c-.47,11.28,8.88,20.19,19.77,20.91,9.65.65,19.99-10.17,20.1-20.23.13-12.17-10.11-19.75-17.96-19.57-13.74.32-21.86,7.01-21.91,18.88Z"/>
  <path d="m450.44,561.45c-.36-2.75-2.02-6.99-1.12-10.6,1.09-4.43,4.14-8.44,6.64-12.45,13-20.91,40.49-23.38,58.38-9.92,12.55,9.45,18.73,27.21,13.77,42.87-8.24,25.97-38.94,37.22-60.74,21.35-5.04-3.67-8.26-9.74-12.76-14.27-4.53-4.56-5.03-9.9-4.15-16.98Zm19.65-2.12c.03,11.56,8.62,20.22,19.84,20.54,9.4.28,20.21-8.71,20.06-20.53-.14-10.8-9.36-19.55-20.42-19.41-11.15.14-19.5,8.46-19.47,19.39Z"/>
  <path class="cls-1" d="m199.76,130.05h-69.5v69.57h-39.76v-69.37H20.42v-39.9h69.47V20.27h39.96v70.11h69.91v39.68Z"/>
  <path class="cls-4" d="m120.28,424.06c13.95-13.99,27.97-27.86,41.77-41.94,7.8-7.96,7.63-8.11,15.5-.26,9.24,9.22,18.5,18.43,27.54,27.44-16.74,16.61-33.2,32.94-50.13,49.73,17.5,17.21,34.1,33.53,50.32,49.49-12.62,12.63-24.57,24.6-36.65,36.68-15.63-16.04-31.81-32.64-48.82-50.09-5.57,5.83-10.71,11.37-16.02,16.74-10.03,10.13-20.16,20.16-30.22,30.26-2.03,2.04-3.73,4.01-6.69,1.02-10.99-11.06-22.11-21.98-33.81-33.57,16.76-16.79,33.1-33.16,50.66-50.75-16.92-15.4-34.4-31.32-50.57-46.04,12.89-14.49,23.69-26.64,35.49-39.9,17.87,17.72,34.67,34.38,51.62,51.19Z"/>
  <path class="cls-2" d="m579.94,90.4v39.27h-179.57v-39.27h179.57Z"/>
  <path class="cls-3" d="m400.42,450.03h179.37v39.85h-179.37v-39.85Z"/>
  <path class="cls-3" d="m470.1,379.58c.05-11.86,8.17-18.56,21.91-18.88,7.85-.18,18.09,7.4,17.96,19.57-.11,10.06-10.45,20.87-20.1,20.23-10.9-.73-20.24-9.63-19.77-20.91Z"/>
  <path class="cls-3" d="m470.1,559.33c-.03-10.93,8.33-19.25,19.47-19.39,11.07-.14,20.29,8.61,20.42,19.41.15,11.82-10.65,20.8-20.06,20.53-11.22-.33-19.81-8.98-19.84-20.54Z"/>
</svg>