<?xml version="1.0" encoding="UTF-8"?>
<svg id="Layer_1" data-name="Layer 1" xmlns="http://www.w3.org/2000/svg" viewBox="0 0 384 384">
  <path d="m0,384V0h384c0,127.97,0,255.98,0,384H0Zm287.59-12.03h12.09v-17.92c19.25,0,38.21-.31,57.16.14,8.89.21,14.94-6.02,14.57-14.7-.19-4.48-.45-9.03.08-13.46.51-4.29-1.64-8.04-1.14-12.5.61-5.4-1.2-11.08-2.03-16.62-1.2-8.04-2.48-16.06-3.68-24.09-.95-6.38-1.82-12.78-2.73-19.16-.84-5.89-2.14-11.77-2.4-17.69-.41-9.34-.25-18.71-.03-28.06.06-2.44.77-5.07,1.91-7.23,4.45-8.49,5.34-16.98,1.2-25.84-1.68-3.59-3.35-7.02-3.32-11.38.22-35.55.16-71.1.06-106.65,0-3.1-.28-6.6-1.71-9.21-1.92-3.49-4.57-7.23-7.89-9.12-3.14-1.79-7.56-1.74-11.43-1.79-16.09-.17-32.19-.02-48.28-.16-1.61-.01-3.65-.8-4.72-1.95-5.03-5.41-9.76-11.09-14.64-16.64-2.54-2.89-5.13-5.34-9.54-5.34-60.63.09-121.26.06-181.89.06-5.53,0-7.32,1.79-7.34,7.3-.03,5.45,0,10.91,0,16.66-1.01,0-1.72,0-2.44,0-9.36,0-18.71-.06-28.07.03-8.84.09-17.44,7.26-17.43,17.32.07,58.75.07,117.5-.06,176.25-.01,5.09-1.15,10.19-1.87,15.27-1.05,7.45-2.25,14.88-3.27,22.33-.86,6.28-1.55,12.59-2.33,18.88-1.47,11.82-3.26,23.62-4.31,35.48-.63,7.05-.16,14.21-.07,21.32.07,5.09,5.69,10.52,10.74,10.52,19.09.01,38.17.01,57.26.02,1.2,0,2.41,0,3.9,0v17.92h11.83c16.03,0,32.05,0,48.08,0h12.07v-17.72h71.8v17.72h11.81c16.03,0,32.05,0,48.08,0Z" fill="#fff"/>
  <path d="m95.75,371.97h-11.83v-17.92c-1.5,0-2.7,0-3.9,0-19.09,0-38.17-.01-57.26-.02-5.04,0-10.67-5.43-10.74-10.52-.09-7.11-.56-14.27.07-21.32,1.05-11.86,2.84-23.65,4.31-35.48.78-6.29,1.47-12.6,2.33-18.88,1.02-7.45,2.22-14.88,3.27-22.33.72-5.08,1.86-10.18,1.87-15.27.14-58.75.13-117.5.06-176.25-.01-10.06,8.59-17.23,17.43-17.32,9.36-.09,18.71-.03,28.07-.03.71,0,1.43,0,2.44,0,0-5.75-.02-11.2,0-16.66.03-5.51,1.81-7.3,7.34-7.3,60.63,0,121.26.02,181.89-.06,4.41,0,7,2.45,9.54,5.34,4.88,5.55,9.61,11.23,14.64,16.64,1.07,1.15,3.12,1.94,4.72,1.95,16.09.14,32.19-.01,48.28.16,3.87.04,8.28,0,11.43,1.79,3.32,1.89,5.97,5.63,7.89,9.12,1.43,2.61,1.7,6.1,1.71,9.21.11,35.55.17,71.1-.06,106.65-.03,4.36,1.64,7.79,3.32,11.38,4.14,8.86,3.25,17.35-1.2,25.84-1.13,2.16-1.85,4.79-1.91,7.23-.21,9.35-.37,18.72.03,28.06.26,5.92,1.56,11.79,2.4,17.69.91,6.39,1.78,12.78,2.73,19.16,1.2,8.04,2.48,16.06,3.68,24.09.83,5.55,2.64,11.22,2.03,16.62-.5,4.46,1.65,8.22,1.14,12.5-.53,4.43-.28,8.97-.08,13.46.37,8.68-5.68,14.91-14.57,14.7-18.94-.45-37.9-.14-57.16-.14v17.92c-4.22,0-8.15,0-12.09,0-.03-6.36.26-12.74-.18-19.07-.36-5.22,1.09-9.56,4.12-13.64,2.17-2.93,4.25-5.95,6.06-9.11.98-1.71,1.79-3.79,1.82-5.71.17-11.6.12-23.2.05-34.79-.01-2.24-.49-4.48-.72-6.38-4.71-1.32-5.49.81-5.29,4.39.23,4.07.05,8.15.05,12.32h-12.45v-28.85q-5.51-.28-5.52,4.4c0,6.18,0,12.36,0,18.38h-12.47v-34.64q-5.49-.48-5.5,4.13c0,10.18,0,20.36,0,30.57h-12.5v-28.87q-5.47-.19-5.47,4.51c0,13.09,0,26.19,0,39.28,0,1.06-.11,2.13-.16,2.97h-11.81c0-4.76,0-9.25,0-13.74,0-2.3-1.24-3.77-3.45-3.86-2.65-.11-2.55,1.94-2.55,3.87.03,10.85.11,21.7-.07,32.55-.04,2.22.94,3.34,2.48,4.34,3.66,2.39,7.36,4.7,11.02,7.08,2.56,1.66,4.62,3.6,4.57,7.06-.11,7.6-.08,15.21-.1,22.82h-11.81v-17.72h-71.8v17.72c-4.21,0-8.14,0-12.07,0-.03-7.73,0-15.47-.1-23.2-.04-3.03,1.22-5.12,3.75-6.69,3.89-2.41,7.61-5.12,11.59-7.37,2.16-1.22,2.74-2.66,2.7-5.02-.14-8.85-.05-17.71-.06-26.57,0-1.75.09-3.5-.03-5.24-.15-2.22-1.36-3.76-3.66-3.62-2.18.13-2.38,1.83-2.34,3.73.11,4.68.04,9.37.04,13.88h-12.48v-46.63q-5.48-.46-5.49,4.16c0,8.19,0,16.37,0,24.55h-11.98c0-.81,0-1.42,0-2.02,0-9.48.04-18.96-.03-28.44-.02-2.26-.3-4.53-3.49-4.53-3.39,0-2.43,2.52-2.44,4.3-.06,10.19-.03,20.39-.03,30.74h-12.41v-22.84q-5.55-.34-5.56,4.32c0,1.37,0,2.74,0,4.12v20.31h-11.79c-.84-5.78.97-11.55-1.2-16.66-4.13-1.21-5.15.38-5.06,4.07.23,9.1.71,18.27-.09,27.3-.89,10.07,1.69,18.55,8.14,26.08.79.93,1.64,1.89,2.13,2.98.78,1.75,1.75,3.62,1.8,5.46.18,7.6.03,15.21,0,22.82ZM257.56,24.88H84.09v203.16h215.14v-11.73h-4.35c-44.67,0-89.34,0-134.01.01-4.58,0-8.57-.36-12.76-3.5-9.88-7.41-20.56-13.74-30.88-20.57-4.57-3.02-4.57-8.77-.1-11.72,10.94-7.22,21.92-14.39,32.8-21.7,2.57-1.73,5.16-2.46,8.25-2.46,45.67.07,91.34.05,137.01.05h4.12v-83.85c-11.38,0-22.58,0-33.78,0-6.32,0-7.96-1.61-7.97-7.83-.01-13.21,0-26.42,0-39.86Zm90.47,215.65H34.89c-3.42,23.95-6.79,47.59-10.18,71.35h47.17c0-6.97-.18-13.7.06-20.41.18-4.89-.25-9.85,2.68-14.43,1.93-3.01,6.61-6.87,10.06-5.97,4.17,1.09,6.03-1.33,7.11-4.23,2.36-6.33,7.17-8.41,13.28-8.57,1.98-.05,2.84-.62,3.83-2.53,1.35-2.63,3.68-4.8,5.75-7.02,2.41-2.58,5.67-.68,8.25-1.3,5.03-1.21,7.91,1.25,11.1,4.06.78.68,2.18,1.38,3.04,1.14,9.11-2.48,19.17,5.7,18.73,15.73-.2,4.57-.03,9.16-.03,13.74,11.61-.46,19,7.8,18.02,18.55-.33,3.68-.05,7.41-.05,11.24h35.94c0-4.96-.3-9.71.11-14.39.26-2.93,1.03-6.13,2.57-8.58,3.34-5.32,8.58-7.48,15.32-6.56,0-5.71.04-11.04-.01-16.37-.07-7.22,7.88-15.44,17.33-13.41,1.99.43,3.03.23,4.42-1.26,4.95-5.28,12.63-6.7,18.51-2.66,3.35,2.3,5.61,6.19,8.7,9.75,5.98-.98,10.79,1.82,14.18,8.12,1.49,2.78,3.32,5.31,7.84,4.69,3.86-.53,7.69,2.02,9.76,5.54,2.4,4.09,2.9,8.91,3.04,13.59.22,7.18.06,14.37.06,21.63h46.76c-3.41-23.91-6.79-47.55-10.2-71.43Zm-185.01-54c3.39,2.53,6.04,4.67,8.87,6.56,2.43,1.62,2.8,3.88,2.3,6.37-.86,4.34-.55,4.86,3.7,4.87,35.41,0,70.82,0,106.23,0,1.07,0,2.14-.13,3.11-.19v-35.52h-116.88c4.52,4.7,4.34,7.54-.32,11.42-2.19,1.82-4.19,3.88-7,6.51ZM71.57,60.56v-11.92c-9.25,0-18.23,0-27.21,0-6.96,0-8.4,1.45-8.4,8.51,0,55.75,0,111.5,0,167.25v3.64h11.92c0-1.58,0-2.93,0-4.29,0-51.88,0-103.76,0-155.65,0-5.72,1.81-7.52,7.51-7.53,5.34-.02,10.69,0,16.16,0Zm.1,167.58V72.79h-11.58v155.35h11.58Zm275.5-69.69c.06-.75.19-1.58.19-2.42,0-33.31.02-66.62,0-99.92,0-4.87-2.66-7.45-7.6-7.46-11.73-.03-23.46-.06-35.18.06-1.55.02-3.1.92-4.65,1.41.77,1.27,1.54,2.55,2.32,3.82.32.52.65,1.04,1.02,1.53,2.46,3.23,5.04,5.78,9.8,5.21,4.43-.53,8.97-.12,13.46-.11,6.79,0,8.92,2.09,8.92,8.8,0,27.94.02,55.89-.03,83.83,0,2.03.14,3.63,2.6,3.95,3,.39,5.99.86,9.16,1.32Zm-35.6-2.26h11.66v-83.4h-11.66v83.4Zm12.07,11.86v36.27c4.82,0,9.5.49,14.03-.14,4.29-.6,7.18-3.71,10.43-6.77,3.6-3.39,4.99-7.49,4.96-11.01-.05-8.35-4.11-15.25-13.8-17.14-5.02-.98-10.25-.83-15.62-1.2Zm35.6,156.37h-48.06c2.09,7.36-2.98,11.93-6.53,17.33h54.59v-17.33Zm-287.09,0H24.21v17.38h54.02c-3.3-5.52-8.22-10.09-6.06-17.38Zm98.01,17.61c12.47,0,24.41.05,36.35-.09,1.01-.01,2.84-1.19,2.87-1.89.25-5.22.13-10.46.13-15.61h-35.63q-.88,14.47-3.73,17.59Zm140.86-138.01v-35.33h-11.24v35.33h11.24Zm-180.72-17.66c7.01,4.7,13.51,9.11,20.06,13.45,4.49,2.98,4.52,2.94,9.02-2.02-2.23-1.82-4.5-3.69-6.78-5.54-3.54-2.86-3.94-7.32-.69-10.53,2.37-2.34,5.04-4.39,7.91-6.84-2.96-2.15-3.9-5.76-7.44-3.39-7.16,4.78-14.28,9.61-22.08,14.87Zm161.28-125.95c-7.45-8.59-14.46-16.67-21.86-25.21v25.21h21.86Zm55.61,167.7v-13.92c-3.92.89-7.67,1.73-11.57,2.62v11.3h11.57Zm-23.95.02v-11.64h-11.6v11.64h11.6Z"/>
  <path d="m95.75,371.97c.03-7.61.17-15.22,0-22.82-.04-1.84-1.02-3.71-1.8-5.46-.48-1.09-1.33-2.05-2.13-2.98-6.45-7.54-9.04-16.02-8.14-26.08.8-9.03.33-18.2.09-27.3-.09-3.7.93-5.28,5.06-4.07,2.17,5.11.36,10.88,1.2,16.66h11.79v-20.31c0-1.37,0-2.74,0-4.12q0-4.66,5.56-4.32v22.84h12.41c0-10.35-.03-20.54.03-30.74.01-1.78-.94-4.29,2.44-4.3,3.19,0,3.47,2.26,3.49,4.53.07,9.48.03,18.96.03,28.44,0,.6,0,1.21,0,2.02h11.98c0-8.18,0-16.37,0-24.55q0-4.62,5.49-4.16v46.63h12.48c0-4.51.08-9.2-.04-13.88-.05-1.9.16-3.59,2.34-3.73,2.31-.14,3.51,1.4,3.66,3.62.12,1.74.03,3.49.03,5.24,0,8.86-.08,17.71.06,26.57.04,2.36-.54,3.79-2.7,5.02-3.98,2.25-7.7,4.96-11.59,7.37-2.54,1.57-3.79,3.67-3.75,6.69.1,7.73.08,15.46.1,23.2-16.03,0-32.05,0-48.08,0Z" fill="#ffddce"/>
  <path d="m239.51,371.97c.03-7.61,0-15.21.1-22.82.05-3.46-2.02-5.39-4.57-7.06-3.66-2.38-7.37-4.69-11.02-7.08-1.53-1-2.51-2.12-2.48-4.34.18-10.85.1-21.7.07-32.55,0-1.93-.1-3.98,2.55-3.87,2.22.09,3.45,1.56,3.45,3.86,0,4.49,0,8.98,0,13.74h11.81c.05-.84.16-1.91.16-2.97.01-13.09,0-26.19,0-39.28q0-4.71,5.47-4.51v28.87h12.5c0-10.21,0-20.39,0-30.57q0-4.61,5.5-4.13v34.64h12.47c0-6.02,0-12.2,0-18.38q0-4.68,5.52-4.4v28.85h12.45c0-4.16.17-8.25-.05-12.32-.2-3.58.58-5.71,5.29-4.39.22,1.89.7,4.13.72,6.38.08,11.6.12,23.2-.05,34.79-.03,1.92-.85,4-1.82,5.71-1.81,3.16-3.89,6.18-6.06,9.11-3.03,4.09-4.48,8.42-4.12,13.64.44,6.33.15,12.71.18,19.07-16.03,0-32.05,0-48.08,0Z" fill="#ffddce"/>
  <path d="m257.56,24.88c0,13.44,0,26.65,0,39.86,0,6.21,1.65,7.82,7.97,7.83,11.2,0,22.4,0,33.78,0v83.85h-4.12c-45.67,0-91.34.02-137.01-.05-3.1,0-5.68.73-8.25,2.46-10.88,7.31-21.86,14.48-32.8,21.7-4.47,2.95-4.47,8.69.1,11.72,10.32,6.83,21,13.16,30.88,20.57,4.19,3.14,8.17,3.5,12.76,3.5,44.67-.02,89.34-.01,134.01-.01h4.35v11.73H84.09V24.88h173.47Zm23.67,83.48v-11.68H101.99v11.68h179.23Zm-179.13,12.25v11.58h179.14v-11.58H102.1ZM239.49,48.83H102.05v11.54h137.44v-11.54Zm-137.57,35.5h137.44v-11.55H101.92v11.55Z" fill="#f7d4aa"/>
  <path d="m348.03,240.53c3.41,23.88,6.79,47.53,10.2,71.43h-46.76c0-7.25.16-14.45-.06-21.63-.14-4.68-.64-9.5-3.04-13.59-2.07-3.52-5.9-6.07-9.76-5.54-4.52.62-6.34-1.92-7.84-4.69-3.39-6.3-8.2-9.1-14.18-8.12-3.09-3.56-5.35-7.44-8.7-9.75-5.88-4.04-13.57-2.62-18.51,2.66-1.39,1.48-2.43,1.68-4.42,1.26-9.45-2.03-17.4,6.19-17.33,13.41.05,5.33.01,10.66.01,16.37-6.74-.92-11.98,1.24-15.32,6.56-1.54,2.45-2.31,5.65-2.57,8.58-.41,4.68-.11,9.43-.11,14.39h-35.94c0-3.82-.28-7.56.05-11.24.98-10.74-6.41-19.01-18.02-18.55,0-4.58-.17-9.17.03-13.74.44-10.03-9.62-18.21-18.73-15.73-.86.23-2.27-.46-3.04-1.14-3.19-2.8-6.07-5.27-11.1-4.06-2.58.62-5.84-1.28-8.25,1.3-2.07,2.22-4.4,4.39-5.75,7.02-.98,1.91-1.85,2.48-3.83,2.53-6.1.16-10.92,2.24-13.28,8.57-1.08,2.9-2.94,5.31-7.11,4.23-3.44-.9-8.13,2.95-10.06,5.97-2.93,4.58-2.51,9.54-2.68,14.43-.24,6.71-.06,13.44-.06,20.41H24.71c3.39-23.76,6.76-47.4,10.18-71.35h313.14Z" fill="#4a80aa"/>
  <path d="m163.02,186.53c2.81-2.63,4.8-4.69,7-6.51,4.66-3.87,4.84-6.71.32-11.42h116.88v35.52c-.96.06-2.03.19-3.11.19-35.41.01-70.82.01-106.23,0-4.25,0-4.56-.53-3.7-4.87.5-2.49.13-4.74-2.3-6.37-2.82-1.89-5.48-4.03-8.87-6.56Z" fill="#dd636e"/>
  <path d="m71.57,60.56c-5.48,0-10.82-.01-16.16,0-5.71.02-7.51,1.81-7.51,7.53,0,51.88,0,103.76,0,155.65,0,1.36,0,2.71,0,4.29h-11.92v-3.64c0-55.75,0-111.5,0-167.25,0-7.05,1.43-8.5,8.4-8.51,8.98,0,17.96,0,27.21,0v11.92Z" fill="#b3b3b3"/>
  <path d="m71.68,228.14h-11.58V72.79h11.58v155.35Z" fill="#2488ff"/>
  <path d="m347.18,158.45c-3.17-.46-6.16-.93-9.16-1.32-2.46-.32-2.6-1.91-2.6-3.95.05-27.94.03-55.89.03-83.83,0-6.7-2.13-8.79-8.92-8.8-4.49,0-9.03-.42-13.46.11-4.77.58-7.34-1.98-9.8-5.21-.37-.49-.7-1.01-1.02-1.53-.78-1.27-1.55-2.55-2.32-3.82,1.55-.49,3.1-1.4,4.65-1.41,11.73-.12,23.46-.08,35.18-.06,4.95.01,7.6,2.6,7.6,7.46.02,33.31.01,66.62,0,99.92,0,.83-.13,1.67-.19,2.42Z" fill="#999"/>
  <path d="m311.58,156.19v-83.4h11.66v83.4h-11.66Z" fill="#2488ff"/>
  <path d="m323.65,168.05c5.36.37,10.6.22,15.62,1.2,9.7,1.89,13.75,8.79,13.8,17.14.02,3.52-1.36,7.63-4.96,11.01-3.25,3.06-6.14,6.17-10.43,6.77-4.53.63-9.21.14-14.03.14v-36.27Z" fill="#ffddce"/>
  <path d="m359.25,324.42v17.33h-54.59c3.55-5.41,8.62-9.97,6.53-17.33h48.06Z" fill="#4a80aa"/>
  <path d="m72.17,324.43c-2.15,7.29,2.76,11.86,6.06,17.38H24.21v-17.38h47.95Z" fill="#4a80aa"/>
  <path d="m170.17,342.04q2.85-3.12,3.73-17.59h35.63c0,5.15.11,10.39-.13,15.61-.03.7-1.86,1.88-2.87,1.89-11.94.13-23.88.09-36.35.09Z" fill="#4a80aa"/>
  <path d="m311.04,204.03h-11.24v-35.33h11.24v35.33Z" fill="#4a80aa"/>
  <path d="m130.32,186.37c7.8-5.26,14.92-10.09,22.08-14.87,3.54-2.36,4.48,1.24,7.44,3.39-2.86,2.46-5.53,4.5-7.91,6.84-3.25,3.21-2.84,7.67.69,10.53,2.29,1.85,4.55,3.72,6.78,5.54-4.51,4.96-4.53,5-9.02,2.02-6.55-4.34-13.05-8.75-20.06-13.45Z" fill="#ffddce"/>
  <path d="m291.59,60.42h-21.86v-25.21c7.4,8.54,14.41,16.62,21.86,25.21Z" fill="#f7d4aa"/>
  <path d="m347.21,228.12h-11.57v-11.3c3.91-.88,7.66-1.73,11.57-2.62v13.92Z" fill="#b3b3b3"/>
  <path d="m323.25,228.14h-11.6v-11.64h11.6v11.64Z" fill="#2488ff"/>
  <path d="m281.23,108.36H101.99v-11.68h179.23v11.68Z"/>
  <path d="m102.1,120.61h179.14v11.58H102.1v-11.58Z"/>
  <path d="m239.49,48.83v11.54H102.05v-11.54h137.44Z"/>
  <path d="m101.92,84.33v-11.55h137.44v11.55H101.92Z"/>
</svg>