<?xml version="1.0" encoding="UTF-8"?>
<svg id="Layer_1" data-name="Layer 1" xmlns="http://www.w3.org/2000/svg" viewBox="0 0 256 256">
  <defs>
    <style>
      .cls-1 {
        fill: #fff;
      }

      .cls-2 {
        fill: #c3d3dd;
      }

      .cls-3 {
        fill: #80b6ff;
      }

      .cls-4 {
        fill: #ffcd69;
      }
    </style>
  </defs>
  <path d="m0,233.5V62c1.47-2.42,3.88-2.94,6.41-2.98,5.13-.08,10.27-.02,15.59-.02v-2.63c0-8.15,0-16.31,0-24.46,0-2.66.99-3.92,3.56-4.39,1.51-.28,3.05-.47,4.59-.5,4.55-.06,9.1-.02,13.85-.02,0-6.84.13-13.47-.06-20.1-.09-3.11.42-5.6,3.56-6.9,68.33,0,136.67,0,205,0,1.17,1.17,2.33,2.33,3.5,3.5v230.5c-.77,1.25-2,2.42-2.23,3.77-1.02,5.86-4.65,9.92-9.31,12.86-3.66,2.31-7.95,3.62-11.96,5.38H22.5c-.16-.16-.31-.42-.5-.45-7.01-1.18-12.4-4.87-16.73-10.42-2.73-3.49-3.81-7.62-5.27-11.63Zm49.01-112.54c-2.54.17-4.86-1.11-4.96-2.84-.1-1.65-.05-3.31-.05-4.96,0-24.5,0-49,0-73.49v-2.55h-12v3.04c0,60.24,0,120.49,0,180.73,0,.67.07,1.34-.01,2-.59,4.49-2.57,6.31-5.52,6.14-3.02-.17-4.47-2.17-4.47-6.34,0-50.25,0-100.49,0-150.74v-2.76h-12c0,.6,0,1.01,0,1.43,0,51.74,0,103.49,0,155.23,0,2.08-.52,4.35.14,6.2,1.1,3.08,2.38,6.45,4.59,8.72,7.83,8.08,19.17,6.69,25.83-1.77,2.28-2.9,4.32-6.48,2.39-9.8.46-1.76,1.01-2.86,1.01-3.97.05-21,.04-42,.04-62.99,0-3.97,1.06-5.09,5.02-5.31,3.41-.05,4.92,2.01,4.94,6.67.09,21.25.11,42.5-.03,63.75-.02,3.36-.57,6.82-1.53,10.04-.9,3.01-2.69,5.75-4.08,8.62,60.29,0,120.63.02,180.96-.03,5.25,0,9.68-2.35,12.81-6.45,2.41-3.15,4.88-6.65,2.83-10.37.47-1.78,1.04-2.95,1.04-4.12.04-70.83.04-141.66.04-212.49v-2.4H54v2.84c0,33.75,0,67.5,0,101.25,0,.58.05,1.17,0,1.75-.32,3.39-1.99,5.06-4.98,4.99Z"/>
  <path class="cls-1" d="m0,233.5c1.45,4.01,2.54,8.14,5.27,11.63,4.34,5.55,9.72,9.24,16.73,10.42.19.03.33.29.5.45H0v-22.5Z"/>
  <path class="cls-1" d="m256,3.5C254.83,2.33,253.67,1.17,252.5,0c1.17,0,2.33,0,3.5,0v3.5Z"/>
  <path class="cls-1" d="m49.01,120.96c2.99.07,4.66-1.6,4.98-4.99.05-.58,0-1.17,0-1.75,0-33.75,0-67.5,0-101.25v-2.84h192v2.4c0,70.83,0,141.66-.04,212.49,0,1.17-.58,2.34-1.04,4.12,2.05,3.72-.43,7.22-2.83,10.37-3.13,4.1-7.56,6.44-12.81,6.45-60.33.05-120.66.03-180.96.03,1.4-2.87,3.18-5.61,4.08-8.62.97-3.22,1.51-6.68,1.53-10.04.13-21.25.12-42.5.03-63.75-.02-4.66-1.53-6.72-4.94-6.67,0-4.28,0-8.56,0-12.85,2.74-.24,4.82-2.03,5.01-4.32.27-3.17-.77-4.48-4.2-5.32-.3-.07-.55-.33-.82-.51,0-4.32,0-8.65,0-12.97Zm100.59-41.96c25.24,0,50.48,0,75.72,0,4.6,0,6.66-2.05,6.67-6.69,0-10.66.07-21.33-.03-31.99-.05-5.28-1.67-7.32-7.32-7.32-49.73,0-99.47,0-149.2,0-.58,0-1.17-.04-1.75,0-4.38.32-5.7,1.74-5.7,6.12,0,11.5,0,22.99,0,34.49,0,3.71,1.67,5.38,5.38,5.38,25.41,0,50.82,0,76.22,0Zm-81.61,66.99c0,15.83,0,31.66,0,47.48,0,3.87,1.64,5.53,5.49,5.53,24.82,0,49.65-.1,74.47.09,5.14.04,6.99-2.31,7-7.16.08-30.66.09-61.31-.02-91.97-.02-4.72-1.22-6.91-6.9-6.94-15.24-.07-30.49-.02-45.73-.02-9.33,0-18.66-.17-27.99.07-4.93.13-6.43,1.5-6.38,6.19.16,15.58.06,31.15.06,46.73Zm81.78,77.01c25.32,0,50.64,0,75.96,0,.5,0,1,.03,1.5,0,2.2-.13,4.12-2.05,4.26-4.25.2-3.15-.79-4.71-3.48-5.23-1.43-.28-2.89-.5-4.34-.5-49.47-.03-98.94-.02-148.41-.02-.58,0-1.17-.05-1.75,0-3.73.37-5.43,1.78-5.51,4.55-.11,3.59,1.69,5.44,5.33,5.44,25.49,0,50.97,0,76.46,0Zm50.31-120c8.91,0,17.82,0,26.73,0,2.37,0,3.87-1.3,4.63-3.34.84-2.26.29-4.44-1.85-5.64-1.26-.71-2.93-.97-4.41-.97-15.49-.07-30.98-.04-46.47-.04-1.25,0-2.52-.15-3.74.03-3.56.54-6.2.89-5.99,5.32.15,3.14,2.07,4.65,6.13,4.65,8.33,0,16.66,0,24.98,0Zm.2,24c8.83,0,17.66-.03,26.48.02,2.3.01,3.87-1.25,4.62-3.08.85-2.08.62-4.46-1.55-5.74-1.32-.77-3.05-1.14-4.6-1.15-13.82-.09-27.65-.05-41.47-.05-2.91,0-5.85-.22-8.74.05-3.8.36-6.23,1.05-6.05,5.24.14,3.21,2,4.7,6.08,4.7,8.41,0,16.82,0,25.23,0Zm-.18,24c8.91,0,17.82,0,26.73,0,2.36,0,3.86-1.31,4.62-3.35.85-2.28.26-4.44-1.87-5.64-1.26-.71-2.93-.96-4.42-.96-15.99-.07-31.98-.04-47.97-.04-.75,0-1.5-.03-2.25,0-4.26.18-6.05,1.79-5.96,5.36.08,3.13,2.07,4.64,6.13,4.64,8.33,0,16.66,0,24.98,0Zm.2,24c8.83,0,17.66-.02,26.48.02,2.3.01,3.85-1.25,4.61-3.09.86-2.1.6-4.46-1.57-5.73-1.32-.77-3.05-1.13-4.6-1.14-14.32-.08-28.65-.05-42.97-.05-2.42,0-4.85-.21-7.24.05-3.73.41-6.22,1-6.03,5.27.15,3.2,2,4.68,6.09,4.68,8.41,0,16.82,0,25.23,0Zm-.04,24c8.82,0,17.65.02,26.47-.01,3.66-.01,6.01-3.6,4.57-6.9-1.12-2.57-3.44-3.06-5.84-3.06-13.74-.05-27.47-.02-41.21-.02-3.16,0-6.36-.27-9.48.07-3.69.4-6.04.97-5.79,5.47.17,2.99,2.12,4.46,6.06,4.46,8.41,0,16.82,0,25.22,0Z"/>
  <path class="cls-2" d="m49.01,120.96c0,4.32,0,8.65,0,12.97-2.91.58-5.04,2.76-5.01,5.1.03,2.36,2.45,4.8,5.01,5.04,0,4.28,0,8.56,0,12.85-3.96.22-5.02,1.34-5.02,5.31,0,21,.01,42-.04,62.99,0,1.11-.55,2.22-1.01,3.97,1.93,3.33-.11,6.91-2.39,9.8-6.66,8.46-18,9.85-25.83,1.77-2.21-2.28-3.49-5.64-4.59-8.72-.66-1.85-.14-4.12-.14-6.2,0-51.74,0-103.49,0-155.23,0-.41,0-.83,0-1.43h12v2.76c0,50.25,0,100.49,0,150.74,0,4.17,1.45,6.17,4.47,6.34,2.95.17,4.92-1.65,5.52-6.14.09-.66.01-1.33.01-2,0-60.24,0-120.49,0-180.73v-3.04h12v2.55c0,24.5,0,49,0,73.49,0,1.65-.05,3.31.05,4.96.11,1.73,2.42,3.02,4.96,2.84Z"/>
  <path d="m149.61,79c-25.41,0-50.82,0-76.22,0-3.71,0-5.38-1.67-5.38-5.38,0-11.5,0-22.99,0-34.49,0-4.39,1.31-5.8,5.7-6.12.58-.04,1.17,0,1.75,0,49.73,0,99.47,0,149.2,0,5.66,0,7.28,2.05,7.32,7.32.09,10.66.03,21.33.03,31.99,0,4.64-2.06,6.69-6.67,6.69-25.24,0-50.48,0-75.72,0Zm-71.54-10.15h143.78v-25.71H78.07v25.71Z"/>
  <path d="m68,145.99c0-15.58.1-31.16-.06-46.73-.05-4.69,1.45-6.06,6.38-6.19,9.32-.25,18.66-.07,27.99-.07,15.24,0,30.49-.05,45.73.02,5.68.03,6.89,2.22,6.9,6.94.11,30.66.09,61.31.02,91.97-.01,4.85-1.86,7.2-7,7.16-24.82-.19-49.65-.09-74.47-.09-3.85,0-5.49-1.65-5.49-5.53,0-15.83,0-31.66,0-47.48Zm10.06,42.86h66.79v-85.7h-66.79v85.7Z"/>
  <path d="m149.78,223c-25.49,0-50.97,0-76.46,0-3.64,0-5.44-1.84-5.33-5.44.08-2.78,1.78-4.19,5.51-4.55.58-.06,1.17,0,1.75,0,49.47,0,98.94,0,148.41.02,1.45,0,2.91.22,4.34.5,2.69.52,3.69,2.08,3.48,5.23-.14,2.2-2.06,4.12-4.26,4.25-.5.03-1,0-1.5,0-25.32,0-50.64,0-75.96,0Z"/>
  <path d="m200.1,103c-8.33,0-16.66,0-24.98,0-4.06,0-5.98-1.51-6.13-4.65-.21-4.43,2.43-4.78,5.99-5.32,1.22-.18,2.49-.03,3.74-.03,15.49,0,30.98-.03,46.47.04,1.49,0,3.15.26,4.41.97,2.14,1.2,2.69,3.38,1.85,5.64-.76,2.04-2.26,3.35-4.63,3.34-8.91-.01-17.82,0-26.73,0Z"/>
  <path d="m200.29,127c-8.41,0-16.82,0-25.23,0-4.08,0-5.93-1.49-6.08-4.7-.19-4.19,2.25-4.88,6.05-5.24,2.89-.28,5.82-.05,8.74-.05,13.82,0,27.65-.04,41.47.05,1.55,0,3.28.38,4.6,1.15,2.18,1.27,2.41,3.65,1.55,5.74-.75,1.83-2.32,3.09-4.62,3.08-8.83-.04-17.66-.02-26.48-.01Z"/>
  <path d="m200.11,151c-8.33,0-16.66,0-24.98,0-4.05,0-6.05-1.51-6.13-4.64-.09-3.57,1.7-5.18,5.96-5.36.75-.03,1.5,0,2.25,0,15.99,0,31.98-.02,47.97.04,1.49,0,3.16.25,4.42.96,2.13,1.2,2.72,3.36,1.87,5.64-.76,2.05-2.26,3.35-4.62,3.35-8.91,0-17.82,0-26.73,0Z"/>
  <path d="m200.31,175c-8.41,0-16.82,0-25.23,0-4.09,0-5.95-1.48-6.09-4.68-.19-4.26,2.3-4.86,6.03-5.27,2.39-.26,4.82-.05,7.24-.05,14.32,0,28.65-.03,42.97.05,1.55,0,3.29.37,4.6,1.14,2.17,1.27,2.43,3.63,1.57,5.73-.75,1.84-2.31,3.1-4.61,3.09-8.83-.04-17.66-.02-26.48-.01Z"/>
  <path d="m200.27,199c-8.41,0-16.82,0-25.22,0-3.93,0-5.89-1.47-6.06-4.46-.25-4.5,2.11-5.07,5.79-5.47,3.13-.34,6.32-.07,9.48-.07,13.74,0,27.47-.02,41.21.02,2.41,0,4.73.49,5.84,3.06,1.44,3.31-.91,6.89-4.57,6.9-8.82.03-17.65.01-26.47.01Z"/>
  <path d="m49.02,144.07c-2.56-.24-4.99-2.68-5.01-5.04-.03-2.35,2.11-4.52,5.01-5.1.27.17.52.43.82.51,3.42.85,4.46,2.15,4.2,5.32-.19,2.29-2.27,4.08-5.01,4.32Z"/>
  <path class="cls-4" d="m78.07,68.85v-25.71h143.78v25.71H78.07Z"/>
  <path class="cls-3" d="m78.06,188.85v-85.7h66.79v85.7h-66.79Z"/>
</svg>