<?xml version="1.0" encoding="UTF-8"?>
<svg id="Layer_1" data-name="Layer 1" xmlns="http://www.w3.org/2000/svg" viewBox="0 0 2000 2000">
  <defs>
    <style>
      .cls-1 {
        fill: #fff;
      }

      .cls-2 {
        fill: #242938;
      }
    </style>
  </defs>
  <rect class="cls-2" width="2000" height="2000" rx="468.75" ry="468.75"/>
  <path class="cls-1" d="m1781.25,1429.2c-22.74,8.62-47.85,8.59-70.59-.05-22.73-8.65-41.51-25.32-52.78-46.87-70.8-105.99-148.99-207.2-224.14-310.59l-32.59-43.44c-89.48,119.89-178.97,235-260.63,354.46-10.64,20.59-28.4,36.62-49.98,45.09-21.58,8.48-45.5,8.81-67.3.96l335.78-450.46-312.33-407.03c22.48-8.12,47.08-8.23,69.63-.32s41.69,23.37,54.17,43.75c72.54,105.99,152.91,207.2,232.83,314.5,80.37-106.43,159.86-208.08,234.14-313.2,10.7-20.26,28.47-35.88,49.94-43.89,21.46-8.01,45.13-7.85,66.48.45l-121.2,160.72c-54.3,71.67-107.73,143.78-164.2,213.72-4.55,4.08-8.2,9.06-10.69,14.64-2.49,5.58-3.78,11.62-3.78,17.73s1.29,12.14,3.78,17.72,6.13,10.56,10.69,14.64c103.82,137.7,206.77,275.84,312.76,417.45h0Z"/>
  <path class="cls-1" d="m218.75,972.66c9.12-43.44,14.77-90.79,27.37-135.09,75.15-267.15,381.39-378.35,592.07-212.85,123.37,96.87,154.21,234.14,148.13,388.78H291.29c-11.29,276.27,188.09,443.08,443.08,357.94,41.36-14.8,78.39-39.66,107.74-72.34,29.35-32.69,50.09-72.17,60.37-114.88,13.47-43.44,35.19-50.82,76.45-38.23-6.8,52.88-25.49,103.54-54.69,148.16-29.19,44.62-68.12,82.03-113.85,109.44-75.57,41.33-162.27,57.7-247.7,46.77-85.43-10.92-165.22-48.58-227.96-107.59-62.07-69.79-99.6-157.96-106.86-251.08,0-14.77-5.65-29.54-8.69-43.44-.29-25.77-.43-50.97-.43-75.59Zm73.41-18.68h628.56c-3.91-200.25-130.32-342.3-298.86-343.6-187.66-2.61-321.88,136.4-330.14,342.73l.43.87Z"/>
</svg>