<?xml version="1.0" encoding="UTF-8"?>
<svg id="Layer_1" data-name="Layer 1" xmlns="http://www.w3.org/2000/svg" viewBox="0 0 63.97 67.49">
  <defs>
    <style>
      .cls-1 {
        fill: #ffd52e;
      }

      .cls-2 {
        fill: #1cdaff;
      }

      .cls-3 {
        fill: #00fca8;
      }

      .cls-4 {
        fill: #ff3525;
      }
    </style>
  </defs>
  <path class="cls-2" d="m33.81,67.44c-4.36,0-8.72-.06-13.07.03-2.39.05-3.5-.49-2.7-3.22,2.48-8.47,4.71-17.02,7.3-25.45.34-1.11,2.18-2.46,3.36-2.49,8.58-.22,17.18-.09,25.77-.14,2.95-.02,3.65,1.15,2.81,3.97-2.42,8.1-4.71,16.24-6.88,24.41-.59,2.24-1.64,3.01-3.89,2.94-4.23-.13-8.46-.04-12.7-.04Z"/>
  <path class="cls-1" d="m22.24,31.38c-4.24,0-8.47-.04-12.71.02-2.57.03-3.72-.71-2.88-3.57,2.46-8.35,4.8-16.74,7.08-25.15C14.29.61,15.38-.02,17.45,0c8.6.09,17.19.09,25.79,0,2.84-.03,3.41.98,2.63,3.64-2.43,8.23-4.7,16.51-6.95,24.8-.58,2.13-1.68,3.07-3.97,2.99-4.23-.14-8.47-.04-12.71-.05Z"/>
  <path class="cls-3" d="m50.99,31.39c-10.56-.06-9.88,1.15-6.94-9.21q2.44-8.6,11.49-8.59c9.93.03,9.51-1.22,6.7,8.83-.07.24-.1.49-.17.72-3.12,9.83-.44,8.05-11.07,8.25Z"/>
  <path class="cls-4" d="m8.93,53.96c-10.44-.1-10.13,1.35-7.04-9.2,3.03-10.32.47-8.43,11.22-8.55,10.71-.12,9.53-.76,6.91,9.04-.03.12-.09.23-.12.35q-2.38,8.36-10.96,8.36Z"/>
</svg>